<?xml version="1.0" encoding="utf-8"?>
<svg xmlns="http://www.w3.org/2000/svg" viewBox="0 0 24 24" width="48" height="48">
  <path d="M12 3 A 4 4 0 0 0 8 7 A 4 4 0 0 0 12 11 A 4 4 0 0 0 16 7 A 4 4 0 0 0 12 3 z M 18 12C14.7 12 12 14.7 12 18C12 21.3 14.7 24 18 24C21.3 24 24 21.3 24 18C24 14.7 21.3 12 18 12 z M 11.050781 14.046875C7.8907812 14.308875 3 15.796 3 18.5L3 21L10.587891 21C10.211891 20.073 10 19.062 10 18C10 16.56 10.384781 15.213875 11.050781 14.046875 z M 18 15C18.552 15 19 15.448 19 16L19 17L20 17C20.552 17 21 17.448 21 18C21 18.552 20.552 19 20 19L19 19L19 20C19 20.552 18.552 21 18 21C17.448 21 17 20.552 17 20L17 19L16 19C15.448 19 15 18.552 15 18C15 17.448 15.448 17 16 17L17 17L17 16C17 15.448 17.448 15 18 15 z" fill="#8D9AAE" />
</svg>